# xmcd
#
# Track frame offsets: 
#        150
#        12259
#        25040
#        36152
#        52829
#        66869
#        76874
#        94224
#        107778
#        121920
#        139609
#        154458
#        171666
#        189522
#
# Disc length: 2746 seconds
#
# Revision: 0
# Processed by: cddbd v1.5.2PL0 Copyright (c) Steve Scherf et al.
# Submitted via: ExactAudioCopy v1.3
#
DISCID=b50ab80e
DTITLE=Máida e Marcelo - A vida é só alegria
DYEAR=1900
DGENRE=Country
TTITLE0=A vida é só alegria
TTITLE1=Feito espora
TTITLE2=Saudade docê
TTITLE3=Enquanto a chuva cai
TTITLE4=Não quero piedade
TTITLE5=A paixão de João e Maria
TTITLE6=É de dar agua na boca
TTITLE7=Estás acabando comigo
TTITLE8=Momentos
TTITLE9=Bicicleta
TTITLE10=Leva
TTITLE11=Me busque o tempo
TTITLE12=Deus salve o amor
TTITLE13=Ainda queima a esperança
EXTD=
EXTT0=
EXTT1=
EXTT2=
EXTT3=
EXTT4=
EXTT5=
EXTT6=
EXTT7=
EXTT8=
EXTT9=
EXTT10=
EXTT11=
EXTT12=
EXTT13=
PLAYORDER=
